<mxfile host="app.diagrams.net" modified="2024-04-03T00:30:54.203Z" agent="Mozilla/5.0 (X11; Linux x86_64) AppleWebKit/537.36 (KHTML, like Gecko) Chrome/123.0.0.0 Safari/537.36" etag="HB_stNbN7c2EywQHZiKx" version="24.2.1" type="device">
  <diagram name="페이지-1" id="7S5lTNuC7zaxYhMuyJxt">
    <mxGraphModel dx="1271" dy="729" grid="1" gridSize="10" guides="1" tooltips="1" connect="1" arrows="1" fold="1" page="1" pageScale="1" pageWidth="1169" pageHeight="827" math="0" shadow="0">
      <root>
        <mxCell id="0" />
        <mxCell id="1" parent="0" />
        <mxCell id="tPTaoLydg7z53Rz1t_cY-9" value="nokubectl" style="rounded=1;whiteSpace=wrap;html=1;fontStyle=1;fontSize=16;fillColor=#FF8000;gradientColor=#FFFF00;gradientDirection=radial;" parent="1" vertex="1">
          <mxGeometry x="250" y="200" width="240" height="250" as="geometry" />
        </mxCell>
        <mxCell id="tPTaoLydg7z53Rz1t_cY-22" value="orch.io" style="rounded=1;whiteSpace=wrap;html=1;fontStyle=1;fontSize=16;fillColor=#3399FF;" parent="1" vertex="1">
          <mxGeometry x="820" y="210" width="200" height="230" as="geometry" />
        </mxCell>
        <mxCell id="Ehu5zhmhbnfWqi4yC7iF-1" value="" style="edgeStyle=segmentEdgeStyle;endArrow=classic;html=1;curved=0;rounded=0;endSize=8;startSize=8;exitX=0.54;exitY=0.013;exitDx=0;exitDy=0;exitPerimeter=0;entryX=0.592;entryY=0.004;entryDx=0;entryDy=0;entryPerimeter=0;" edge="1" parent="1" source="tPTaoLydg7z53Rz1t_cY-22" target="tPTaoLydg7z53Rz1t_cY-9">
          <mxGeometry width="50" height="50" relative="1" as="geometry">
            <mxPoint x="700" y="400" as="sourcePoint" />
            <mxPoint x="750" y="350" as="targetPoint" />
            <Array as="points">
              <mxPoint x="928" y="100" />
              <mxPoint x="392" y="100" />
            </Array>
          </mxGeometry>
        </mxCell>
        <mxCell id="Ehu5zhmhbnfWqi4yC7iF-2" value="Priv key" style="shape=note;whiteSpace=wrap;html=1;backgroundOutline=1;darkOpacity=0.05;fontStyle=1" vertex="1" parent="1">
          <mxGeometry x="610" y="110" width="80" height="100" as="geometry" />
        </mxCell>
        <mxCell id="Ehu5zhmhbnfWqi4yC7iF-3" value="" style="edgeStyle=segmentEdgeStyle;endArrow=classic;html=1;curved=0;rounded=0;endSize=8;startSize=8;exitX=0.542;exitY=1;exitDx=0;exitDy=0;exitPerimeter=0;entryX=0.5;entryY=1;entryDx=0;entryDy=0;" edge="1" parent="1" source="tPTaoLydg7z53Rz1t_cY-9" target="tPTaoLydg7z53Rz1t_cY-22">
          <mxGeometry width="50" height="50" relative="1" as="geometry">
            <mxPoint x="700" y="520" as="sourcePoint" />
            <mxPoint x="750" y="470" as="targetPoint" />
            <Array as="points">
              <mxPoint x="380" y="540" />
              <mxPoint x="920" y="540" />
            </Array>
          </mxGeometry>
        </mxCell>
        <mxCell id="Ehu5zhmhbnfWqi4yC7iF-4" value="issue" style="text;html=1;align=center;verticalAlign=middle;whiteSpace=wrap;rounded=0;fontStyle=3" vertex="1" parent="1">
          <mxGeometry x="620" y="50" width="60" height="30" as="geometry" />
        </mxCell>
        <mxCell id="Ehu5zhmhbnfWqi4yC7iF-5" value="&lt;div&gt;&lt;br&gt;&lt;/div&gt;&lt;div&gt;&lt;br&gt;&lt;/div&gt;&lt;div&gt;User&lt;/div&gt;" style="shape=actor;whiteSpace=wrap;html=1;fontStyle=1" vertex="1" parent="1">
          <mxGeometry x="50" y="250" width="90" height="110" as="geometry" />
        </mxCell>
        <mxCell id="Ehu5zhmhbnfWqi4yC7iF-6" value="" style="edgeStyle=segmentEdgeStyle;endArrow=classic;html=1;curved=0;rounded=0;endSize=8;startSize=8;exitX=1;exitY=0.591;exitDx=0;exitDy=0;exitPerimeter=0;fontStyle=0;strokeWidth=2;" edge="1" parent="1" source="Ehu5zhmhbnfWqi4yC7iF-5">
          <mxGeometry width="50" height="50" relative="1" as="geometry">
            <mxPoint x="370" y="400" as="sourcePoint" />
            <mxPoint x="250" y="315" as="targetPoint" />
          </mxGeometry>
        </mxCell>
        <mxCell id="Ehu5zhmhbnfWqi4yC7iF-7" value="APIX" style="rounded=0;whiteSpace=wrap;html=1;fillColor=#FF8000;fontStyle=1;fontSize=14;" vertex="1" parent="1">
          <mxGeometry x="330" y="414" width="110" height="60" as="geometry" />
        </mxCell>
        <mxCell id="Ehu5zhmhbnfWqi4yC7iF-10" value="command" style="text;html=1;align=center;verticalAlign=middle;whiteSpace=wrap;rounded=0;fontStyle=3" vertex="1" parent="1">
          <mxGeometry x="150" y="270" width="60" height="30" as="geometry" />
        </mxCell>
        <mxCell id="Ehu5zhmhbnfWqi4yC7iF-11" value="" style="edgeStyle=segmentEdgeStyle;endArrow=classic;html=1;curved=0;rounded=0;endSize=8;startSize=8;exitX=0.295;exitY=1.009;exitDx=0;exitDy=0;exitPerimeter=0;entryX=0.75;entryY=1;entryDx=0;entryDy=0;" edge="1" parent="1" source="tPTaoLydg7z53Rz1t_cY-22" target="Ehu5zhmhbnfWqi4yC7iF-7">
          <mxGeometry width="50" height="50" relative="1" as="geometry">
            <mxPoint x="280" y="370" as="sourcePoint" />
            <mxPoint x="330" y="320" as="targetPoint" />
            <Array as="points">
              <mxPoint x="879" y="510" />
              <mxPoint x="413" y="510" />
            </Array>
          </mxGeometry>
        </mxCell>
        <mxCell id="Ehu5zhmhbnfWqi4yC7iF-12" value="resp" style="text;html=1;align=center;verticalAlign=middle;whiteSpace=wrap;rounded=0;fontStyle=3" vertex="1" parent="1">
          <mxGeometry x="630" y="460" width="60" height="30" as="geometry" />
        </mxCell>
        <mxCell id="Ehu5zhmhbnfWqi4yC7iF-13" value="req" style="text;html=1;align=center;verticalAlign=middle;whiteSpace=wrap;rounded=0;fontStyle=3" vertex="1" parent="1">
          <mxGeometry x="630" y="560" width="60" height="30" as="geometry" />
        </mxCell>
        <mxCell id="Ehu5zhmhbnfWqi4yC7iF-14" value="" style="edgeStyle=segmentEdgeStyle;endArrow=classic;html=1;curved=0;rounded=0;endSize=8;startSize=8;entryX=1;entryY=0.75;entryDx=0;entryDy=0;fontStyle=1;strokeWidth=2;" edge="1" parent="1" target="Ehu5zhmhbnfWqi4yC7iF-5">
          <mxGeometry width="50" height="50" relative="1" as="geometry">
            <mxPoint x="250" y="340" as="sourcePoint" />
            <mxPoint x="570" y="440" as="targetPoint" />
            <Array as="points">
              <mxPoint x="247" y="333" />
              <mxPoint x="150" y="333" />
            </Array>
          </mxGeometry>
        </mxCell>
        <mxCell id="Ehu5zhmhbnfWqi4yC7iF-15" value="output" style="text;html=1;align=center;verticalAlign=middle;whiteSpace=wrap;rounded=0;fontStyle=3" vertex="1" parent="1">
          <mxGeometry x="160" y="350" width="60" height="30" as="geometry" />
        </mxCell>
        <mxCell id="Ehu5zhmhbnfWqi4yC7iF-16" value="format &amp;amp;&lt;div&gt;verification&lt;/div&gt;" style="shape=step;perimeter=stepPerimeter;whiteSpace=wrap;html=1;fixedSize=1;" vertex="1" parent="1">
          <mxGeometry x="390" y="380" width="90" height="50" as="geometry" />
        </mxCell>
      </root>
    </mxGraphModel>
  </diagram>
</mxfile>
